<svg xmlns="http://www.w3.org/2000/svg" width="1080" height="320" viewBox="0 0 1080 320" role="img" aria-labelledby="title desc">
  <title id="title">Simplified alkyd resin production flow</title>
  <desc id="desc">Diagram showing inputs of oils, polyols, and acids into a reactor, producing alkyd resin packaged for coatings.</desc>
  <style>
    .box{fill:#FFFFFF;stroke:#232B36;stroke-width:2;}
    .label{font-family:Segoe UI, Arial, sans-serif;font-size:16px;fill:#232B36;font-weight:700;}
    .sub{font-family:Segoe UI, Arial, sans-serif;font-size:14px;fill:#5A6473;}
  </style>
  <rect x="70" y="60" width="180" height="80" class="box"/>
  <text x="95" y="95" class="label">Oils / Fatty acids</text>
  <text x="95" y="118" class="sub">Soy, sunflower, tall oil</text>

  <rect x="70" y="180" width="180" height="80" class="box"/>
  <text x="105" y="215" class="label">Polyols</text>
  <text x="95" y="238" class="sub">Glycerol, pentaerythritol</text>

  <rect x="320" y="120" width="180" height="80" class="box"/>
  <text x="340" y="155" class="label">Acids / Anhydrides</text>
  <text x="345" y="178" class="sub">Phthalic, maleic</text>

  <rect x="560" y="100" width="200" height="120" class="box" fill="#F6F8FB"/>
  <text x="595" y="150" class="label">Reactor</text>
  <text x="575" y="175" class="sub">Polyesterification + modification</text>

  <rect x="820" y="120" width="200" height="120" class="box"/>
  <text x="845" y="155" class="label">Alkyd Resin Output</text>
  <text x="845" y="178" class="sub">Packed in drums / IBCs</text>

  <defs>
    <marker id="arrow2" viewBox="0 0 10 10" refX="5" refY="5" markerWidth="8" markerHeight="8" orient="auto">
      <path d="M0 0 L10 5 L0 10 z" fill="#232B36"/>
    </marker>
  </defs>

  <g stroke="#232B36" stroke-width="2" fill="none" marker-end="url(#arrow2)">
    <line x1="250" y1="100" x2="560" y2="140"/>
    <line x1="250" y1="220" x2="560" y2="180"/>
    <line x1="500" y1="160" x2="560" y2="160"/>
    <line x1="760" y1="160" x2="820" y2="160"/>
  </g>
</svg>
