<?xml version="1.0" encoding="utf-8"?>
<!-- Generator: Adobe Illustrator 24.3.0, SVG Export Plug-In . SVG Version: 6.00 Build 0)  -->
<svg version="1.1" id="Layer_1" xmlns="http://www.w3.org/2000/svg" xmlns:xlink="http://www.w3.org/1999/xlink" x="0px" y="0px"
	 viewBox="0 0 841.89 595.28" style="enable-background:new 0 0 841.89 595.28;" xml:space="preserve">
<style type="text/css">
	.st0{fill:#512178;}
	.st1{fill:#FFFFFF;}
	.st2{fill:#ED6C0A;}
</style>
<g id="XMLID_278_">
	<g id="XMLID_282_">
		<path class="st0" d="M52.21,398.36c-24.63,0-44.67-20.04-44.67-44.68V241.11c0-24.63,20.04-44.68,44.67-44.68h688v201.92H52.21z"
			/>
	</g>
	<g id="XMLID_279_">
		<path class="st1" d="M732.67,203.97v186.85H52.21c-20.51,0-37.14-16.63-37.14-37.14V241.11c0-20.51,16.63-37.14,37.14-37.14
			H732.67 M747.74,188.9h-15.07H52.21C23.42,188.9,0,212.32,0,241.11v112.57c0,28.79,23.42,52.21,52.21,52.21h680.46h15.07v-15.07
			V203.97V188.9L747.74,188.9z"/>
	</g>
</g>
<g id="XMLID_241_">
	<circle class="st1" cx="727.36" cy="297.4" r="114.64"/>
</g>
<g id="XMLID_240_">
	<circle class="st0" cx="727.36" cy="296.74" r="102.15"/>
</g>
<g id="XMLID_239_">
	<path class="st1" d="M727.36,394.47c-53.89,0-97.73-43.84-97.73-97.73s43.84-97.73,97.73-97.73c53.89,0,97.73,43.84,97.73,97.73
		S781.25,394.47,727.36,394.47z M727.36,202.01c-52.24,0-94.74,42.5-94.74,94.74s42.5,94.74,94.74,94.74s94.74-42.5,94.74-94.74
		S779.6,202.01,727.36,202.01z"/>
</g>
<g id="XMLID_238_">
	<circle class="st1" cx="727.36" cy="296.74" r="69.62"/>
</g>
<g id="XMLID_235_">
	<path class="st1" d="M651.02,273.99c0.75,0.44,1.34,0.97,1.76,1.59l1.91-1.32l1.25,1.95l-2.01,1.38c0.19,0.61,0.31,1.12,0.35,1.54
		c0.06,0.7-0.01,1.51-0.22,2.42c-0.43,1.9-1.34,3.35-2.72,4.34c-1.67,1.2-3.79,1.51-6.35,0.92c-2.59-0.59-4.36-1.81-5.34-3.65
		c-0.79-1.5-0.98-3.19-0.55-5.07c0.43-1.88,1.36-3.33,2.8-4.35c1.66-1.17,3.68-1.49,6.06-0.95
		C649.22,273.08,650.24,273.48,651.02,273.99z M651.66,279.94c0-0.19-0.03-0.44-0.09-0.74l-1.7,1.16l-1.23-1.92l1.69-1.17
		c-0.41-0.34-0.77-0.59-1.1-0.76c-0.49-0.26-1.08-0.47-1.77-0.63c-1.58-0.36-2.89-0.31-3.91,0.16c-1.02,0.47-1.68,1.35-1.97,2.64
		c-0.28,1.2-0.08,2.26,0.59,3.17c0.67,0.91,1.83,1.55,3.49,1.93c1.94,0.44,3.44,0.24,4.52-0.59c0.69-0.54,1.15-1.27,1.36-2.21
		C651.63,280.63,651.66,280.28,651.66,279.94z"/>
</g>
<g id="XMLID_233_">
	<path class="st1" d="M642.64,267.02l1.29-2.9l8.14,3.62c0.91,0.41,1.62,0.59,2.14,0.55c0.9-0.01,1.6-0.6,2.12-1.76
		c0.51-1.15,0.48-2.07-0.12-2.74c-0.32-0.41-0.93-0.81-1.85-1.22l-8.14-3.62l1.29-2.9l8.15,3.62c1.41,0.63,2.41,1.34,2.99,2.14
		c1.07,1.48,1.08,3.4,0.03,5.76c-1.05,2.36-2.49,3.64-4.3,3.85c-0.99,0.1-2.18-0.16-3.59-0.79L642.64,267.02z"/>
</g>
<g id="XMLID_230_">
	<path class="st1" d="M652.53,248.04l2.02-2.9l14.92,3.97l-1.94,2.78l-3.01-0.9l-3.15,4.51l1.86,2.54l-1.87,2.68L652.53,248.04z
		 M659.81,253.38l2.19-3.14l-5.76-1.72L659.81,253.38z"/>
</g>
<g id="XMLID_228_">
	<path class="st1" d="M660.2,238.02l2.21-2.21l8.42,8.41l5.27-5.28l1.85,1.84l-7.48,7.49L660.2,238.02z"/>
</g>
<g id="XMLID_226_">
	<path class="st1" d="M681.66,238.05l-2.43,1.92l-8.99-11.39l2.44-1.92L681.66,238.05z"/>
</g>
<g id="XMLID_224_">
	<path class="st1" d="M685.16,218.45l1.35,2.18l-3.81,2.35l6.28,10.16l-2.67,1.65l-6.28-10.16l-3.82,2.36l-1.35-2.18L685.16,218.45z
		"/>
</g>
<g id="XMLID_222_">
	<path class="st1" d="M696.4,213.61l3.28-1.33l-1.21,10.28l2.05,5.04l-2.89,1.17l-2.05-5.04l-8.21-6.45l3.41-1.39l5.25,4.69
		L696.4,213.61z"/>
</g>
<g id="XMLID_220_">
	<path class="st1" d="M720.02,212.95c-0.36-0.95-1.02-1.57-1.99-1.84c-0.53-0.15-1.12-0.18-1.74-0.11
		c-1.19,0.15-2.12,0.72-2.77,1.69c-0.66,0.97-0.88,2.33-0.65,4.09c0.23,1.77,0.8,2.96,1.73,3.59c0.92,0.63,1.92,0.87,2.98,0.74
		c1.04-0.13,1.85-0.53,2.44-1.2c0.59-0.66,0.9-1.47,0.93-2.43l-3.43,0.44l-0.31-2.4l6.18-0.79l0.99,7.72l-2.05,0.26l-0.54-1.76
		c-0.51,0.76-0.98,1.31-1.43,1.64c-0.75,0.59-1.72,0.96-2.92,1.12c-1.96,0.25-3.66-0.2-5.08-1.37c-1.47-1.15-2.36-2.89-2.66-5.19
		c-0.3-2.33,0.12-4.28,1.26-5.86c1.14-1.57,2.8-2.5,4.97-2.78c1.88-0.24,3.46,0.03,4.72,0.81c1.26,0.78,2.07,1.85,2.41,3.22
		L720.02,212.95z"/>
</g>
<g id="XMLID_218_">
	<path class="st1" d="M727.69,207.98l3.17,0.22l-0.63,8.89c-0.07,1,0,1.73,0.21,2.2c0.32,0.84,1.11,1.3,2.38,1.39
		c1.25,0.09,2.1-0.26,2.53-1.05c0.27-0.44,0.44-1.16,0.51-2.15l0.63-8.89l3.17,0.22l-0.63,8.89c-0.11,1.54-0.44,2.72-0.99,3.54
		c-1.03,1.51-2.83,2.17-5.41,1.99c-2.57-0.18-4.27-1.09-5.08-2.73c-0.43-0.89-0.59-2.11-0.48-3.65L727.69,207.98z"/>
</g>
<g id="XMLID_215_">
	<path class="st1" d="M749.03,210.81l3.41,0.95l1.19,15.4l-3.26-0.91l-0.15-3.14l-5.3-1.48l-1.78,2.6l-3.15-0.88L749.03,210.81z
		 M746.4,219.45l3.69,1.03l-0.28-6.01L746.4,219.45z"/>
</g>
<g id="XMLID_212_">
	<path class="st1" d="M769.55,219c0.4,0.45,0.67,0.95,0.82,1.52c0.13,0.47,0.18,0.94,0.15,1.43c-0.03,0.48-0.16,0.98-0.41,1.49
		c-0.3,0.62-0.75,1.15-1.37,1.6c-0.61,0.44-1.35,0.61-2.21,0.51c0.5,0.54,0.78,1.1,0.82,1.67c0.05,0.57-0.15,1.31-0.59,2.23
		l-0.42,0.88c-0.28,0.6-0.45,1.02-0.51,1.25c-0.09,0.37-0.03,0.71,0.16,1l-0.16,0.33l-3.11-1.49c0.05-0.33,0.11-0.59,0.15-0.79
		c0.1-0.4,0.24-0.8,0.42-1.19l0.56-1.22c0.39-0.84,0.51-1.47,0.36-1.88c-0.15-0.41-0.62-0.81-1.4-1.18l-2.75-1.32l-2.46,5.13
		l-2.75-1.32l6.28-13.08l6.44,3.09C768.5,218.11,769.15,218.56,769.55,219z M762.8,218.15l-1.69,3.51l3.03,1.46
		c0.6,0.29,1.08,0.43,1.45,0.44c0.65,0.01,1.16-0.36,1.51-1.09c0.38-0.79,0.38-1.45-0.01-1.97c-0.22-0.29-0.61-0.58-1.19-0.85
		L762.8,218.15z"/>
</g>
<g id="XMLID_209_">
	<path class="st1" d="M779.76,224.96l2.83,2.11l-4.41,14.8l-2.72-2.02l0.98-2.98l-4.42-3.28l-2.59,1.79l-2.62-1.95L779.76,224.96z
		 M774.21,232.08l3.08,2.28l1.89-5.71L774.21,232.08z"/>
</g>
<g id="XMLID_207_">
	<path class="st1" d="M789.7,232.95l2.21,2.41l-3.45,11.21l7.46-6.84l1.97,2.14l-10.69,9.81l-2.11-2.3l3.48-11.44l-7.59,6.96
		l-1.97-2.14L789.7,232.95z"/>
</g>
<g id="XMLID_205_">
	<path class="st1" d="M806.56,254.92l-2.17,1.38l-2.41-3.77l-10.06,6.43l-1.69-2.65l10.06-6.43l-2.42-3.79l2.16-1.38L806.56,254.92z
		"/>
</g>
<g id="XMLID_203_">
	<path class="st1" d="M810.39,269.78l-3.29-7.65l-2.84,1.2l2.84,6.68l-2.32,0.99l-2.84-6.68l-3.44,1.46l3.1,7.29l-2.4,1.02
		l-4.3-10.1l13.36-5.67l4.49,10.47L810.39,269.78z"/>
</g>
<g id="XMLID_201_">
	<path class="st1" d="M812.8,287.04l-0.4-8.88l-3.08,0.18l0.41,7.25l-2.54,0.09l-0.39-7.19l-3.72,0.21l0.47,8.26l-2.6,0.15
		l-0.65-11.3l14.49-0.83l0.57,11.93L812.8,287.04z"/>
</g>
<g id="XMLID_200_">
	<polygon class="st1" points="654.64,309.77 654.16,306.66 651.59,307.06 652.08,310.16 	"/>
</g>
<g id="XMLID_199_">
	
		<rect x="652.5" y="311.26" transform="matrix(0.9881 -0.1536 0.1536 0.9881 -40.3009 104.1678)" class="st1" width="2.6" height="3.14"/>
</g>
<g id="XMLID_198_">
	
		<rect x="663.08" y="336.56" transform="matrix(0.7772 -0.6293 0.6293 0.7772 -64.7434 493.4425)" class="st1" width="2.6" height="3.15"/>
</g>
<g id="XMLID_197_">
	<path class="st1" d="M652.9,344.62c0.03,0.04,0.06,0.08,0.09,0.12l0,0l0.11,0.14c0.47,0.57,0.9,1.02,1.29,1.34l-0.02,0
		c0.48,0.36,0.97,0.5,1.47,0.4c0.5-0.1,1.1-0.42,1.79-0.98l5.51-4.46l-1.98-2.44l-4.82,3.9c-0.41,0.33-0.77,0.37-1.11,0.13
		l-0.09-0.12c-2.85-3.83-8.68-15.67-11.04-26.04l-2.73,0.37c0,0,1.71,8.88,4.94,15.39C649.61,339.01,652.9,344.62,652.9,344.62z"/>
</g>
<g id="XMLID_192_">
	<g id="XMLID_194_">
		<path class="st1" d="M651.42,316.12l-1.14-7.33c-0.06-0.37-0.12-0.7-0.18-0.98c-0.06-0.28-0.13-0.51-0.21-0.69
			c-0.2-0.6-0.55-1-1.03-1.2c-0.49-0.19-1.18-0.22-2.08-0.08l-4.06,0.63c-0.46,0.07-0.86,0.17-1.18,0.29
			c-0.33,0.12-0.59,0.27-0.8,0.45c-0.2,0.18-0.36,0.4-0.46,0.65c-0.1,0.25-0.17,0.54-0.18,0.89l0-0.01c0,0.36,0.06,0.89,0.17,1.61
			l1.22,7.83l2.88-0.96L651.42,316.12z M643.36,310.97c-0.12-0.75-0.06-1.19,0.17-1.33c0.11-0.08,0.3-0.14,0.55-0.18l2.27-0.35
			c0.25-0.04,0.43-0.06,0.56-0.05c0.13,0,0.23,0.04,0.3,0.1c0.07,0.06,0.12,0.17,0.15,0.31c0.03,0.14,0.07,0.34,0.11,0.59l0.53,3.41
			l-4.15,0.65L643.36,310.97z"/>
	</g>
	<g id="XMLID_193_">
		<polygon class="st1" points="641.48,318.18 641.48,318.18 641.45,318.19 		"/>
	</g>
</g>
<g id="XMLID_191_">
	
		<rect x="719.06" y="370.01" transform="matrix(0.0899 -0.9959 0.9959 0.0899 285.5025 1055.6078)" class="st1" width="2.6" height="3.15"/>
</g>
<g id="XMLID_188_">
	<path class="st1" d="M668.81,359l-0.4-0.41l5.12-4.98l-5.17-5.32c-0.25-0.25-0.48-0.47-0.69-0.66c-0.21-0.19-0.41-0.34-0.59-0.46
		c-0.25-0.19-0.5-0.31-0.75-0.38s-0.51-0.07-0.77-0.01c-0.26,0.06-0.54,0.19-0.82,0.38c-0.28,0.19-0.59,0.44-0.92,0.77l-2.93,2.84
		c-0.33,0.32-0.59,0.62-0.78,0.91c-0.19,0.28-0.32,0.56-0.39,0.83c-0.06,0.27-0.07,0.53-0.02,0.79c0.05,0.26,0.15,0.52,0.3,0.78
		c0.11,0.18,0.26,0.37,0.45,0.58c0.19,0.21,0.4,0.45,0.65,0.7l2.98,3.07l-0.58,0.56c-0.41,0.39-0.77,0.48-1.1,0.26l-1.37-1.41
		l-2.13,2.07l1.57,1.61c0.25,0.26,0.48,0.48,0.68,0.67c0.2,0.19,0.39,0.34,0.57,0.46c0.52,0.32,1.04,0.43,1.56,0.32
		c0.52-0.11,1.1-0.47,1.75-1.1l1.16-1.13 M663.59,353.62c-0.36-0.37-0.31-0.77,0.14-1.21l1.62-1.58c0.38-0.37,0.68-0.49,0.91-0.36
		c0.06,0.04,0.15,0.11,0.27,0.21c0.12,0.1,0.27,0.25,0.45,0.43l2.25,2.31l-2.99,2.91L663.59,353.62z"/>
</g>
<g id="XMLID_45_">
	<path class="st1" d="M746.9,379.85l-0.65-4.05c-0.15-0.92-0.39-1.57-0.75-1.96c-0.35-0.39-0.86-0.59-1.51-0.59
		c-0.23-0.01-0.48,0-0.75,0.02c-0.26,0.02-0.55,0.05-0.87,0.1l-4.29,0.68c-0.36,0.06-0.68,0.12-0.96,0.19
		c-0.28,0.07-0.52,0.14-0.71,0.21c-0.59,0.2-0.99,0.55-1.18,1.04c-0.19,0.49-0.22,1.18-0.08,2.07l0.5,3.13
		c0.08,0.47-0.06,0.8-0.4,0.99c-0.08,0.03-0.22,0.07-0.43,0.11c0,0-0.01,0-0.01,0c-2.32,0.28-4.65,0.48-7,0.47l0.43-4.09
		c0.08-0.92,0.01-1.61-0.22-2.08c-0.23-0.47-0.66-0.78-1.27-0.95c-0.2-0.06-0.44-0.12-0.72-0.16c-0.28-0.05-0.6-0.09-0.96-0.12
		l-8.08-0.73c-0.95-0.08-1.69,0.36-2.21,1.34c-0.11-0.43-0.27-0.78-0.47-1.05c-0.2-0.26-0.45-0.43-0.73-0.5
		c-0.15-0.06-0.34-0.1-0.57-0.13c-0.24-0.03-0.52-0.06-0.86-0.09l-0.66,7.23c-4.81-0.88-8.79-2.2-13.51-3.96l-0.81-0.37l1.73-3.75
		c0.39-0.84,0.55-1.52,0.47-2.04c-0.07-0.52-0.38-0.96-0.93-1.33c-0.18-0.13-0.39-0.26-0.63-0.4c-0.24-0.13-0.49-0.26-0.77-0.39
		l-3.95-1.82c-0.34-0.15-0.64-0.28-0.91-0.38c-0.27-0.1-0.51-0.17-0.71-0.22c-0.6-0.16-1.12-0.09-1.55,0.21
		c-0.43,0.3-0.84,0.86-1.22,1.68l-1.32,2.87c-0.2,0.43-0.5,0.63-0.9,0.6c-0.01,0-0.03-0.01-0.04-0.01
		c-0.02-0.02-0.03-0.06-0.05-0.07c-4.81-2.72-14.28-8.59-18.61-13.74l-1.96,2.53c4.82,4.41,13.87,11.18,18.47,13.54l-0.04,0.08
		l1.19,0.55c0.15,0.07,0.24,0.11,0.37,0.16c0.12,0.06,0.26,0.14,0.38,0.2l0-0.03c0.06,0.03,0.16,0.07,0.21,0.09
		c0.26,0.11,0.48,0.17,0.66,0.21c0.28,0.08,0.58,0.06,0.88-0.08c0.3-0.13,0.61-0.35,0.92-0.66c-0.06,1.09,0.35,1.84,1.24,2.25
		l6.43,2.96l-0.01,0.04c8.94,4.02,19.62,5.59,30.81,5.59c0.56,0,1.11-0.04,1.66-0.06l0.28,0.02l0-0.03c1.81-0.07,3.61-0.2,5.39-0.35
		l0,0.01l1.3-0.21c0.42-0.07,0.77-0.13,1.04-0.19c0.28-0.06,0.5-0.12,0.67-0.19c0.28-0.09,0.51-0.28,0.69-0.55
		c0.18-0.28,0.31-0.63,0.39-1.05c0.57,0.94,1.33,1.33,2.28,1.18l2.92-0.46c0.36-0.06,0.67-0.11,0.95-0.17
		c0.28-0.06,0.51-0.12,0.7-0.2c0.56-0.24,0.95-0.6,1.16-1.09C747.01,381.43,747.04,380.74,746.9,379.85z M695.66,372.39l-1.34,2.91
		l-4-1.81c-0.14-0.14-0.22-0.3-0.24-0.48c-0.02-0.18,0.02-0.39,0.13-0.63l0.95-2.06c0.25-0.55,0.63-0.73,1.14-0.54l3.27,1.51
		C695.84,371.56,695.87,371.93,695.66,372.39z M724.66,382.21c-3.88-0.13-7.17-0.38-10.03-0.76l0.32-3.5
		c0.05-0.52,0.27-0.82,0.67-0.91l8.11,0.73c0.44,0.04,0.74,0.12,0.9,0.24c0.29,0.24,0.41,0.6,0.37,1.1L724.66,382.21z M743.31,380.4
		c-0.2,0.08-0.48,0.15-0.83,0.21l-2.99,0.48c-0.2-0.04-0.37-0.13-0.48-0.26c-0.12-0.14-0.2-0.34-0.24-0.6l-0.36-2.24
		c-0.1-0.59,0.12-0.95,0.64-1.08l3.56-0.57c0.38,0.07,0.61,0.37,0.69,0.87l0.36,2.27c0.04,0.27,0.05,0.47,0.01,0.59
		C743.62,380.21,743.5,380.32,743.31,380.4z"/>
</g>
<g id="XMLID_44_">
	
		<rect x="755.74" y="364.9" transform="matrix(0.9103 -0.414 0.414 0.9103 -83.6567 346.3424)" class="st1" width="3.15" height="2.6"/>
</g>
<g id="XMLID_43_">
	
		<rect x="751.69" y="366.75" transform="matrix(0.9101 -0.4143 0.4143 0.9101 -84.7965 345.1759)" class="st1" width="3.13" height="2.6"/>
</g>
<g id="XMLID_34_">
	<path class="st1" d="M762.88,370.11c-0.2-0.43-0.39-0.78-0.59-1.06c-0.2-0.28-0.41-0.49-0.64-0.64c-0.23-0.15-0.48-0.23-0.74-0.26
		c-0.27-0.02-0.56,0.01-0.88,0.1c-0.23,0.06-0.47,0.13-0.72,0.22c-0.25,0.09-0.52,0.2-0.8,0.33l-3.96,1.81
		c-0.33,0.15-0.62,0.29-0.87,0.43c-0.25,0.14-0.46,0.27-0.63,0.4c-0.52,0.35-0.81,0.79-0.86,1.32c-0.06,0.53,0.1,1.2,0.47,2.02
		l1.7,3.74c0.37,0.82,0.78,1.38,1.23,1.67c0.45,0.29,0.97,0.38,1.56,0.27c0.2-0.04,0.44-0.12,0.7-0.23c0.27-0.11,0.57-0.24,0.9-0.38
		l3.97-1.81c0.32-0.14,0.61-0.28,0.86-0.41s0.46-0.25,0.63-0.38c0.47-0.38,0.75-0.84,0.83-1.36c0.08-0.53-0.07-1.2-0.45-2.02
		L762.88,370.11z M761.27,375.34c-0.17,0.13-0.43,0.27-0.76,0.42l-2.56,1.16c-0.16,0.06-0.29,0.1-0.39,0.12
		c-0.1,0.02-0.2,0.01-0.28-0.03s-0.15-0.11-0.22-0.21c-0.07-0.1-0.14-0.24-0.22-0.42l-0.95-2.09c-0.12-0.26-0.16-0.5-0.11-0.7
		c0.05-0.21,0.19-0.37,0.42-0.5l3.28-1.49c0.38-0.03,0.68,0.19,0.89,0.65l0.95,2.09c0.11,0.25,0.17,0.44,0.17,0.56
		C761.52,375.06,761.44,375.21,761.27,375.34z"/>
</g>
<g id="XMLID_33_">
	<path class="st1" d="M777.77,366.1l-2.17-3.49c-0.47-0.76-0.93-1.25-1.38-1.49c-0.45-0.24-0.97-0.25-1.55-0.03
		c-0.44,0.15-0.96,0.41-1.56,0.78l-5.13,3.2l1.57,2.52l4.85-3.03c0.4-0.1,0.73,0.07,1.01,0.51l1.21,1.94c0.28,0.44,0.28,0.81,0,1.11
		l-4.86,3.03l1.57,2.52l5.13-3.2c0.31-0.19,0.58-0.38,0.81-0.55c0.24-0.17,0.44-0.34,0.6-0.49l-0.01,0.02
		c0.22-0.22,0.38-0.44,0.48-0.68c0.1-0.23,0.15-0.49,0.14-0.76c-0.01-0.27-0.07-0.56-0.2-0.88
		C778.19,366.83,778.01,366.48,777.77,366.1z"/>
</g>
<g id="XMLID_32_">
	
		<rect x="808.17" y="334.2" transform="matrix(0.4108 -0.9117 0.9117 0.4108 171.2465 935.9728)" class="st1" width="3.14" height="2.61"/>
</g>
<g id="XMLID_27_">
	<path class="st1" d="M791.53,357.83c10.86-10.12,19.2-30.1,21.17-37.41l0.01,0l0.03-0.13c0.89-3.32,1.64-6.69,2.13-10.13
		l-0.03-0.02l0.69-4.47l-3.02,0.08l-0.08,1.35l-4.2,0.26c-0.96,0.04-1.7,0.2-2.22,0.49c-0.52,0.29-0.9,0.76-1.13,1.4
		c-0.08,0.2-0.16,0.44-0.24,0.72c-0.07,0.28-0.14,0.59-0.21,0.94l-1.14,6.04l2.96,0.56l1.09-5.79c0.08-0.41,0.18-0.69,0.31-0.86
		l-0.01,0c0.26-0.29,0.64-0.45,1.14-0.47l-0.01,0.01c0.23-0.01,0.47-0.03,0.74-0.04c0.26-0.02,0.53-0.04,0.8-0.06
		c0.27-0.02,0.54-0.04,0.81-0.06c0.23-0.02,0.59-0.02,0.83-0.03c-0.37,2.32-0.77,4.63-1.33,6.89l-0.01,0.04
		c-1.91,7.73-8.95,26.89-20.95,38"/>
</g>
<g id="XMLID_20_">
	<path class="st1" d="M793.82,360.63c-0.1-0.52-0.46-1.11-1.08-1.76l-1.18-1.25l0.5-0.47l0.05,0.04c0.35-0.38,0.74-0.79,1.15-1.24
		l-1.76-2.61c-0.58,0.63-1.11,1.2-1.59,1.71l-0.41,0.39l-4.91-5.18l-5.39,5.1c-0.26,0.24-0.48,0.47-0.67,0.68
		c-0.19,0.21-0.35,0.4-0.47,0.58c-0.19,0.25-0.32,0.5-0.38,0.75c-0.07,0.25-0.07,0.51-0.02,0.77c0.06,0.27,0.18,0.55,0.37,0.83
		c0.19,0.29,0.44,0.6,0.75,0.93l2.81,2.96c0.31,0.33,0.61,0.6,0.9,0.79c0.28,0.19,0.56,0.33,0.83,0.39
		c0.27,0.07,0.53,0.08,0.79,0.03c0.26-0.05,0.52-0.14,0.79-0.29c0.18-0.11,0.37-0.25,0.59-0.44c0.21-0.19,0.45-0.4,0.71-0.64
		l3.11-2.94l0.55,0.59c0.39,0.41,0.47,0.78,0.24,1.1l-1.42,1.35l2.04,2.15l1.63-1.55c0.26-0.25,0.49-0.47,0.68-0.67
		c0.19-0.2,0.35-0.39,0.47-0.56C793.81,361.67,793.92,361.15,793.82,360.63z M784.47,360.21c-0.37,0.35-0.77,0.3-1.21-0.16
		l-1.56-1.64c-0.36-0.38-0.48-0.69-0.35-0.91c0.04-0.06,0.11-0.15,0.22-0.27c0.11-0.12,0.25-0.27,0.44-0.44l2.34-2.21l2.87,3.03
		L784.47,360.21z"/>
</g>
<g id="XMLID_19_">
	<circle class="st2" cx="727.36" cy="296.74" r="65.88"/>
</g>
<g id="XMLID_4_">
	<g id="XMLID_18_">
		<path class="st1" d="M707.25,344.03h-18.57v-54.52c0-2.78-0.17-8.72,4.38-12.61h19.3c-3.19,3.42-5.12,7.89-5.12,12.78
			L707.25,344.03z"/>
	</g>
	<g id="XMLID_16_">
		<path class="st1" d="M738.23,327.86c0,0-17.05,1.22-24.91-2.57v-21.57c1.53,1.42,4.35,3.58,7.42,4.46
			c7.5,2.13,17.64,1.17,17.64,1.17c11.45,0,20.83-8.87,20.83-19.62c0-10.75-8.78-19.46-20.99-19.46h-49.76v-18.66h49.76
			c20.62,0,39.4,15.96,39.4,38.12C777.64,311.89,758.85,327.86,738.23,327.86z"/>
	</g>
	<g id="XMLID_10_">
		<path class="st0" d="M713.79,289.8c0-7.21,6.19-13.06,13.83-13.06h11.25c7.64,0,13.83,5.85,13.83,13.06
			c0,7.21-6.19,13.06-13.83,13.06h-11.25C719.98,302.86,713.79,297.01,713.79,289.8z"/>
	</g>
</g>
<g id="XMLID_78_">
	<g id="XMLID_103_">
		<path class="st1" d="M524.79,360.72c0-5,4.68-8.92,10.38-8.92h13.4c5.72,0,10.38,3.92,10.38,8.92c0,4.89-4.66,8.8-10.38,8.8h-13.4
			C529.47,369.52,524.79,365.6,524.79,360.72L524.79,360.72z"/>
	</g>
	<g id="XMLID_102_">
		<path class="st1" d="M258.93,360.72c0-5,4.68-8.92,10.4-8.92h13.38c5.88,0,10.54,3.92,10.54,8.92c0,4.89-4.65,8.8-10.54,8.8
			h-13.38C263.61,369.52,258.93,365.6,258.93,360.72L258.93,360.72z"/>
	</g>
	<g id="XMLID_101_">
		<path class="st1" d="M220.57,360.72c0-5,4.68-8.92,10.38-8.92h13.39c5.71,0,10.38,3.92,10.38,8.92c0,4.89-4.67,8.8-10.38,8.8
			h-13.39C225.25,369.52,220.57,365.6,220.57,360.72L220.57,360.72z"/>
	</g>
	<g id="XMLID_81_">
		<path class="st1" d="M116.9,267.67c0-4.89,4.67-8.8,10.38-8.8h13.39c5.73,0,10.38,3.91,10.38,8.8c0,4.89-4.66,8.91-10.38,8.91
			h-13.39C121.58,276.57,116.9,272.56,116.9,267.67L116.9,267.67z"/>
	</g>
	<g id="XMLID_80_">
		<path class="st1" d="M558.21,285.5v20.32v1.09c0,8.04-7.98,12.17-15.96,12.17c-7.98,0-17.3-3.47-17.3-13.15v-80.55h-34.32v85.44
			c0,24.45,25.89,35.33,51.62,35.33c23.17,0,50.26-9.24,50.26-35.43V285.5H558.21L558.21,285.5z"/>
	</g>
	<g id="XMLID_79_">
		<path class="st1" d="M444.15,277.88l-14.3,0.11c0,0-57.45,0-60.3,0c-1.66,0-1.66-0.87-1.06-1.42
			c15.35-12.92,47.54-22.82,60.33-26.3l3.02-0.76l-9.48-25.66l-2.11,0.45c-17.3,3.05-47.39,13.69-72.83,32.6
			c-12.49,9.24-20.17,19.57-20.17,28.59c0,5.54,1.82,10.21,5.28,13.69c6.76,6.74,17.44,6.74,17.91,6.74l87.84,0.1
			c7.51,0,8.13,4.25,8.13,5.77c0,2.71-0.75,5.98-7.82,5.98h-119.9c-5.87-0.12-7.07-4.68-7.07-8.38v-51.09h-31.75v20.99
			c0,1.53-0.3,6.42-4.08,6.42h-43.48c-3.75,0-6.3-2.94-6.3-6.75v-20.1h-32.21v59.34c0,14.79-9.92,22.28-29.65,22.28l-72.48-0.21
			c-12.93,0-26.16-8.37-26.16-27.17c0-13.69,11.58-23.15,26.77-24.79l2.26-0.32v-29.35l-2.7,0.11
			c-32.64,2.17-58.38,24.78-58.38,54.35c0,27.28,14.6,56.52,58.68,56.52l72.02-0.11c51.18,0,61.86-27.93,61.86-51.31
			c0,0,0-6.52,0-8.48c0.75,2.17,4.2,5.44,8.27,5.44h37.61c4.22,0,7.97-3.04,7.97-5.65c0,0.97,0,5.86,0,7.27
			c0,17.06,11.43,29.78,29.19,29.78h9.63h113.27h13.54c16.56,0,34.31-9.99,34.77-31.73c0-0.33,0-3.92,0-4.23
			C480.26,290.17,466.71,277.88,444.15,277.88L444.15,277.88z"/>
	</g>
</g>
</svg>
